<svg width="17" height="17" viewBox="0 0 17 17" fill="none" xmlns="http://www.w3.org/2000/svg">
<path d="M9.20829 4.95842H7.79163V7.79175H4.95829V9.20842H7.79163V12.0417H9.20829V9.20842H12.0416V7.79175H9.20829V4.95842ZM8.49996 1.41675C4.58996 1.41675 1.41663 4.59008 1.41663 8.50008C1.41663 12.4101 4.58996 15.5834 8.49996 15.5834C12.41 15.5834 15.5833 12.4101 15.5833 8.50008C15.5833 4.59008 12.41 1.41675 8.49996 1.41675ZM8.49996 14.1667C5.37621 14.1667 2.83329 11.6238 2.83329 8.50008C2.83329 5.37633 5.37621 2.83341 8.49996 2.83341C11.6237 2.83341 14.1666 5.37633 14.1666 8.50008C14.1666 11.6238 11.6237 14.1667 8.49996 14.1667Z" fill="white"/>
</svg>
